HIERARCHY
ROOT root
{
	OFFSET 0.000000 0.000000 0.000000
	CHANNELS 6 Xposition Yposition Zposition Zrotation Yrotation Xrotation
	JOINT lhip
	{
		OFFSET 0.058581 -0.082280 -0.017664
		CHANNELS 3 Zrotation Yrotation Xrotation
		JOINT lknee
		{
			OFFSET 0.043451 -0.386469 0.008037
			CHANNELS 3 Zrotation Yrotation Xrotation
			JOINT lankle
			{
				OFFSET -0.014790 -0.426874 -0.037428
				CHANNELS 3 Zrotation Yrotation Xrotation
				JOINT ltoe
				{
					OFFSET 0.041054 -0.060286 0.122042
					CHANNELS 3 Zrotation Yrotation Xrotation
					End Site
					{
						OFFSET 0.000000 0.000000 0.000000
					}
				}
			}
		}
	}
	JOINT rhip
	{
		OFFSET -0.060310 -0.090513 -0.013543
		CHANNELS 3 Zrotation Yrotation Xrotation
		JOINT rknee
		{
			OFFSET -0.043257 -0.383688 -0.004843
			CHANNELS 3 Zrotation Yrotation Xrotation
			JOINT rankle
			{
				OFFSET 0.019056 -0.420046 -0.034562
				CHANNELS 3 Zrotation Yrotation Xrotation
				JOINT rtoe
				{
					OFFSET -0.034840 -0.062106 0.130323
					CHANNELS 3 Zrotation Yrotation Xrotation
					End Site
					{
						OFFSET 0.000000 0.000000 0.000000
					}
				}
			}
		}
	}
	JOINT lowerback
	{
		OFFSET 0.004439 0.124404 -0.038385
		CHANNELS 3 Zrotation Yrotation Xrotation
		JOINT upperback
		{
			OFFSET 0.004488 0.137956 0.026820
			CHANNELS 3 Zrotation Yrotation Xrotation
			JOINT chest
			{
				OFFSET -0.002265 0.056032 0.002855
				CHANNELS 3 Zrotation Yrotation Xrotation
				JOINT lowerneck
				{
					OFFSET -0.013390 0.211636 -0.033468
					CHANNELS 3 Zrotation Yrotation Xrotation
					JOINT upperneck
					{
						OFFSET 0.010113 0.088937 0.050410
						CHANNELS 3 Zrotation Yrotation Xrotation
						End Site
						{
							OFFSET 0.000000 0.000000 0.000000
						}
					}
				}
				JOINT lclavicle
				{
					OFFSET 0.071702 0.114000 -0.018898
					CHANNELS 3 Zrotation Yrotation Xrotation
					JOINT lshoulder
					{
						OFFSET 0.122921 0.045205 -0.019046
						CHANNELS 3 Zrotation Yrotation Xrotation
						JOINT lelbow
						{
							OFFSET 0.255332 -0.015649 -0.022946
							CHANNELS 3 Zrotation Yrotation Xrotation
							JOINT lwrist
							{
								OFFSET 0.265709 0.012698 -0.007375
								CHANNELS 3 Zrotation Yrotation Xrotation
								End Site
								{
									OFFSET 0.000000 0.000000 0.000000
								}
							}
						}
					}
				}
				JOINT rclavicle
				{
					OFFSET -0.082954 0.112472 -0.023707
					CHANNELS 3 Zrotation Yrotation Xrotation
					JOINT rshoulder
					{
						OFFSET -0.113228 0.046853 -0.008472
						CHANNELS 3 Zrotation Yrotation Xrotation
						JOINT relbow
						{
							OFFSET -0.260127 -0.014369 -0.031269
							CHANNELS 3 Zrotation Yrotation Xrotation
							JOINT rwrist
							{
								OFFSET -0.269108 0.006794 -0.006027
								CHANNELS 3 Zrotation Yrotation Xrotation
								End Site
								{
									OFFSET 0.000000 0.000000 0.000000
								}
							}
						}
					}
				}
			}
		}
	}
}
MOTION
Frames: 14
Frame Time: 0.033333
0.323699 0.667054 1.288459 -93.970385 0.781100 86.561092 0.252060 -9.232007 -15.945709 -4.118789 1.717000 22.305335 3.564985 12.241704 -27.365648 0.000000 -0.000000 0.000000 0.136070 2.902051 -9.660125 -3.615720 -5.868683 59.262269 9.395911 -7.081270 3.141210 0.000000 -0.000000 0.000000 -7.335210 6.638454 21.125358 1.128948 -0.866118 2.719585 1.072118 1.741981 2.379469 3.314140 1.547301 9.510715 3.086768 -5.255782 13.839359 -21.966735 -1.069870 1.432001 -61.813549 -4.280113 7.870451 16.188845 -32.526207 1.268647 -14.403054 -11.095193 0.443684 23.580367 3.965082 0.671067 60.525082 -0.273631 10.124199 -19.227102 28.876508 -3.426849 13.847184 3.723707 -1.625957 
0.297362 0.664624 1.295942 -93.374070 1.570587 85.657174 -0.229538 -7.844110 -11.773854 -4.046987 -0.639330 20.228929 3.079667 12.338540 -28.372180 0.000000 -0.000000 0.000000 0.500775 3.683423 -14.613792 -4.053594 -7.030906 61.955892 8.825085 -6.729330 -2.884853 0.000000 -0.000000 0.000000 -6.702345 4.746038 21.939992 1.188442 -0.795337 2.379748 0.978771 1.080978 2.625126 3.646653 2.590299 9.907616 2.713752 -5.155820 14.025084 -21.943149 -0.858222 1.248950 -61.737660 -4.983531 7.916888 15.905499 -33.216193 2.053608 -14.627495 -10.732426 1.548710 23.429977 2.756660 0.814904 60.706958 -1.510715 8.914809 -19.075418 28.331866 -3.535156 12.626497 3.584241 -1.996453 
0.272200 0.662512 1.302191 -92.515010 2.349976 84.966203 -0.314856 -6.638958 -8.041148 -4.177985 -3.041102 18.280489 2.432517 12.473922 -29.387090 0.000000 -0.000000 0.000000 0.493059 4.290200 -19.731461 -4.377859 -8.600686 62.282887 8.725343 -7.125963 -8.303508 0.000000 -0.000000 0.000000 -6.134393 2.937532 22.319822 1.410936 -0.931136 2.452711 0.893629 0.432647 2.969381 4.191729 3.646560 9.907298 2.309219 -5.586261 14.165563 -21.770203 -0.849772 1.027842 -61.880676 -6.000821 8.516298 15.885836 -33.519486 2.584538 -14.930311 -10.610865 1.708920 23.410194 1.441526 0.560432 60.787588 -3.022520 8.089647 -19.215276 27.771601 -3.497366 13.152607 3.363943 -2.793367 
0.247521 0.660543 1.307022 -91.576698 3.135420 84.389380 -0.108837 -5.302920 -4.580268 -4.203870 -5.193094 16.461539 1.963933 12.356313 -30.306398 0.000000 -0.000000 0.000000 0.289770 4.611660 -24.584361 -4.649031 -10.419948 60.519798 8.139704 -8.294722 -11.137849 0.000000 -0.000000 0.000000 -5.537132 1.036749 22.600984 1.525643 -0.999762 2.436801 0.890638 -0.324019 3.334037 4.242995 4.054169 9.966891 2.136912 -5.211591 14.149795 -21.708141 -0.650571 1.256783 -61.970351 -7.365056 8.840764 15.793419 -34.226160 3.096156 -14.562633 -10.702688 1.590428 23.317947 0.289385 0.854798 60.934310 -3.984104 7.469315 -19.141705 26.528392 -3.682783 12.483477 3.553352 -2.908983 
0.223026 0.659226 1.310642 -90.802183 3.929819 83.927232 0.446523 -3.717904 -1.332996 -4.131359 -7.029031 14.765926 1.485456 11.492089 -31.375167 0.000000 -0.000000 0.000000 0.078500 4.623418 -28.954364 -4.739678 -11.958353 57.010577 8.040228 -8.587446 -13.565381 0.000000 -0.000000 0.000000 -4.952411 -0.731580 22.970885 1.569870 -1.077057 2.389440 1.021809 -0.973686 3.285268 4.113095 4.566472 10.247443 1.982403 -4.609607 14.430021 -21.709951 -0.536019 1.616365 -62.060790 -8.439346 8.769687 15.884048 -35.389501 3.881876 -16.633883 -10.144632 1.474615 23.193731 -0.646947 1.521923 61.195615 -5.086146 6.425197 -19.230450 25.186900 -3.148982 13.498679 3.345691 -1.663536 
0.199282 0.658727 1.312968 -90.078626 4.461000 83.657383 1.014333 -2.495024 1.532693 -4.214951 -8.722801 13.296356 1.208991 11.176905 -32.174044 0.000000 -0.000000 0.000000 -0.332245 4.453242 -32.723863 -4.108530 -13.067182 51.896071 8.233080 -8.487201 -14.587751 0.000000 -0.000000 0.000000 -4.611349 -1.984517 23.108501 1.750057 -1.299958 2.522739 1.091337 -1.629481 3.750192 4.033473 4.960958 9.860957 2.245205 -5.122365 14.509196 -21.674384 -0.437850 1.333400 -61.916767 -9.830183 9.558652 15.444129 -36.355384 4.017235 -12.475434 -11.859374 2.229845 23.314392 -1.538146 1.339021 61.406652 -6.378416 6.290736 -19.204215 23.317933 -2.862760 12.676123 3.148151 -0.905525 
0.175781 0.658510 1.313383 -89.306574 4.887165 83.445437 1.624269 -1.410572 4.120680 -4.109936 -9.841007 12.083875 1.150958 10.325967 -32.800033 0.000000 -0.000000 0.000000 -0.647829 4.025208 -35.774084 -3.413876 -13.937639 45.992695 8.057308 -8.154711 -14.318129 0.000000 -0.000000 0.000000 -4.337525 -2.998421 23.112010 1.854715 -1.543115 2.866689 1.246059 -2.064854 3.879405 4.080938 5.510164 9.762128 2.354253 -5.149371 14.488322 -21.193324 -0.730291 1.616452 -62.365872 -11.481494 9.931381 16.049981 -37.319091 3.144151 -13.659208 -11.716300 1.403027 23.241941 -2.353811 1.844053 62.202905 -7.078832 5.639517 -19.572914 20.706426 -2.894113 14.376384 2.422289 -0.203570 
0.152223 0.658506 1.312712 -88.490279 5.135110 83.431042 2.058342 -1.006600 6.396948 -4.134712 -10.962737 11.089353 1.150434 10.084703 -33.533863 0.000000 -0.000000 0.000000 -1.000948 3.409453 -38.174891 -2.119986 -14.137171 39.807321 8.920235 -6.988755 -12.595980 0.000000 -0.000000 0.000000 -4.056763 -3.738974 22.886719 1.986441 -1.850208 3.066567 1.263529 -2.582720 4.392302 4.172180 5.969053 9.588518 2.509678 -5.505358 14.689880 -20.884381 -0.801939 1.712889 -62.709978 -13.208754 10.502131 16.424400 -38.027620 2.938908 -12.344195 -12.506947 1.747841 23.172098 -3.040113 2.150025 63.266015 -7.648497 5.393169 -19.927987 17.712412 -3.102573 14.410633 1.955035 0.076420 
0.127776 0.659058 1.311280 -87.750390 5.332060 83.347144 2.533746 -0.361648 8.734288 -4.001668 -12.021134 10.212811 1.147826 9.762430 -34.182075 0.000000 -0.000000 0.000000 -1.097533 2.923524 -39.640063 -1.273373 -14.490202 33.877194 9.753178 -6.076223 -10.332981 0.000000 -0.000000 0.000000 -3.752239 -4.374512 22.981705 2.012375 -2.049578 3.286479 1.423062 -2.639021 4.303399 3.813479 5.860447 9.769871 3.078256 -5.602918 14.577852 -20.720194 -1.108987 1.522405 -63.002814 -14.364877 11.022021 16.446161 -38.541187 2.838479 -12.256177 -12.674807 1.934474 23.312066 -3.556183 2.366815 64.213619 -8.827650 4.610014 -20.312916 14.938058 -3.458403 15.646579 0.987928 1.192937 
0.103087 0.660589 1.309478 -87.054292 5.497490 83.202821 3.141769 0.045862 10.960404 -3.947946 -12.843183 9.675656 1.057589 9.482567 -34.657081 0.000000 -0.000000 0.000000 -0.920390 2.571376 -40.405776 -0.955045 -14.794519 29.532704 9.737561 -5.753240 -6.550353 0.000000 -0.000000 0.000000 -3.468672 -5.009026 23.226551 1.952833 -2.112767 3.346557 1.554132 -2.918412 4.445369 3.456092 5.692118 9.547860 3.027289 -5.147320 14.829487 -20.550341 -0.967048 1.428252 -63.410229 -15.453289 11.007736 16.655145 -39.308773 2.969909 -13.139138 -12.783846 2.182949 23.058867 -3.991336 2.814750 65.540873 -9.190408 4.201804 -20.422771 12.134052 -3.328948 17.349676 0.220780 2.134840 
0.078011 0.662834 1.308049 -86.336448 5.471953 83.209042 3.611583 0.017979 12.950241 -4.067608 -13.567340 9.502431 1.037203 9.470963 -34.947202 0.000000 -0.000000 0.000000 -0.930382 2.278822 -41.102712 -0.707304 -14.216308 29.196430 10.548444 -5.401149 0.805758 0.000000 -0.000000 0.000000 -3.246351 -5.571108 23.234961 1.893476 -2.131518 3.302314 1.520551 -2.983286 4.864717 3.000175 5.162720 9.473102 3.607195 -5.082906 14.796208 -20.592993 -1.319111 1.319655 -63.480813 -16.099929 10.770413 16.899404 -39.749632 2.771991 -14.646527 -12.267986 1.758125 23.123158 -4.158676 2.903313 66.573889 -9.950296 3.875848 -20.240106 10.115806 -2.939983 19.078840 -0.333867 2.526387 
0.051038 0.665801 1.306869 -85.234681 5.353044 83.227856 4.247714 0.169417 14.689774 -4.402018 -14.768471 9.975803 0.912019 9.374689 -34.723059 0.000000 -0.000000 0.000000 -0.862508 2.284550 -40.589941 -0.051972 -13.783790 30.117071 7.994524 -7.118944 6.526438 0.000000 -0.000000 0.000000 -3.042283 -6.249202 22.833620 1.900059 -2.324023 4.087930 1.348075 -3.227810 5.279905 2.378103 4.716549 8.834741 4.073234 -4.820777 15.045993 -20.899238 -1.257741 0.818788 -63.315899 -16.395163 10.635479 16.907728 -40.300159 2.459335 -14.631408 -11.973786 1.681202 23.228377 -4.404046 2.518474 67.395019 -10.353467 4.062516 -20.023895 8.788354 -3.033016 20.096165 -1.218578 3.506528 
0.024049 0.669556 1.307356 -83.685585 5.398202 83.620613 5.177098 0.014734 15.891763 -4.564776 -15.973513 10.654573 -0.236212 8.428290 -34.182289 0.000000 -0.000000 0.000000 -0.904606 2.818438 -39.802074 -0.560376 -14.699527 33.114244 6.210271 -8.258698 -1.442681 0.000000 -0.000000 0.000000 -2.731335 -7.178087 22.746198 2.058430 -2.567529 4.515847 1.276121 -3.527214 4.816554 2.515796 4.791172 9.137736 3.505543 -4.700780 15.020416 -21.400629 -1.111129 0.868041 -63.239284 -16.094161 10.095708 17.116763 -40.479731 2.214986 -14.928313 -11.649859 1.235864 23.513524 -4.401358 2.677526 67.828150 -10.682085 3.252875 -19.818447 8.145423 -2.743959 21.303738 -1.328538 4.016630 
-0.002007 0.674112 1.309961 -82.452806 5.298838 84.530095 5.861265 -0.420676 16.415870 -4.533701 -16.699266 11.316838 -1.660038 7.343195 -32.580255 0.000000 -0.000000 0.000000 -0.888545 3.706542 -39.605195 -1.476940 -15.489136 35.348463 4.276176 -9.123030 -6.006059 0.000000 -0.000000 0.000000 -2.515908 -7.773607 22.342271 2.276202 -2.675412 4.831646 1.273403 -3.887546 4.675765 2.646757 4.973553 9.093354 3.228168 -4.696790 14.737456 -21.706883 -1.216802 1.105628 -63.453791 -15.732090 9.779467 18.021342 -40.154404 0.964659 -15.353331 -11.512550 0.971293 23.709890 -4.204641 2.717290 68.018273 -10.714063 3.050004 -19.631359 8.566052 -2.666494 21.764816 -1.020541 3.328701 
